<?xml version="1.0" encoding="utf-8"?>
<!-- Uploaded to: SVG Repo, www.svgrepo.com, Generator: SVG Repo Mixer Tools -->
<svg width="800px" height="800px" viewBox="0 0 64 64" xmlns="http://www.w3.org/2000/svg">
<title>football-player-spain</title>
<g id="football-player-spain">
<circle cx="28" cy="33" r="23" style="fill:#e5efef"/>
<path d="M33.467,45A16.99,16.99,0,0,0,48.5,35.933H18.437A16.99,16.99,0,0,0,33.467,45Z" style="fill:#f53e28;stroke:#4c241d;stroke-linecap:round;stroke-linejoin:round;stroke-width:2px"/>
<path d="M48.5,20.067H18.437a16.958,16.958,0,0,0,0,15.866H48.5a16.958,16.958,0,0,0,0-15.866Z" style="fill:#ffce56;stroke:#4c241d;stroke-linecap:round;stroke-linejoin:round;stroke-width:2px"/>
<path d="M33.467,11a16.99,16.99,0,0,0-15.03,9.067H48.5A16.99,16.99,0,0,0,33.467,11Z" style="fill:#f53e28;stroke:#4c241d;stroke-linecap:round;stroke-linejoin:round;stroke-width:2px"/>
<path d="M26.1,32.424l-6.9,10.05a2.378,2.378,0,0,0,.51,3.029l2.747,2.324a4.36,4.36,0,0,1,1.354,4.606l-.735,2.4L15.834,47.35a5.4,5.4,0,0,1-.965-6.138l6.043-12.289Z" style="fill:#6b4f5b;stroke:#4c241d;stroke-linecap:round;stroke-linejoin:round;stroke-width:2px"/>
<path d="M32,37,23,61h0a3.138,3.138,0,0,1-3.048-3.885l5.93-24.194Z" style="fill:#6b4f5b;stroke:#4c241d;stroke-linecap:round;stroke-linejoin:round;stroke-width:2px"/>
<path d="M21.217,19.21l-13.24.736a1.715,1.715,0,0,1-1.52-.76h0A1.712,1.712,0,0,1,7.588,16.55l14.264-2.481Z" style="fill:#ffe8dc;stroke:#4c241d;stroke-linecap:round;stroke-linejoin:round;stroke-width:2px"/>
<path d="M42.273,20.93l2.885,1.6a1.934,1.934,0,0,0,1.722.076L54.105,19.4a1.425,1.425,0,0,1,1.587.294h0a1.426,1.426,0,0,1-.289,2.24l-9.092,5.3a3.014,3.014,0,0,1-2.706.167L41.26,26.4Z" style="fill:#ffe8dc;stroke:#4c241d;stroke-linecap:round;stroke-linejoin:round;stroke-width:2px"/>
<path d="M41.26,26.4,38,25,32,37,20,29l5-10-3.783.21.635-5.141,3.306-.575a8.167,8.167,0,0,1,5.364.907L42.273,20.93Z" style="fill:#ffffff;stroke:#4c241d;stroke-linecap:round;stroke-linejoin:round;stroke-width:2px"/>
<line x1="6" y1="30" x2="6" y2="32" style="fill:none;stroke:#4c241d;stroke-linecap:round;stroke-linejoin:round;stroke-width:2px"/>
<line x1="6" y1="36" x2="6" y2="38" style="fill:none;stroke:#4c241d;stroke-linecap:round;stroke-linejoin:round;stroke-width:2px"/>
<line x1="2" y1="34" x2="4" y2="34" style="fill:none;stroke:#4c241d;stroke-linecap:round;stroke-linejoin:round;stroke-width:2px"/>
<line x1="8" y1="34" x2="10" y2="34" style="fill:none;stroke:#4c241d;stroke-linecap:round;stroke-linejoin:round;stroke-width:2px"/>
<path d="M6.082,53.667A1.069,1.069,0,1,1,5.013,52.6,1.07,1.07,0,0,1,6.082,53.667Z" style="fill:#4c241d"/>
<path d="M39.218,15.567l-1.9-.908a5.4,5.4,0,0,1-2.55-7.2l.584-1.226a3.756,3.756,0,0,1,5.005-1.773h0a3.755,3.755,0,0,1,1.773,5Z" style="fill:#ffe8dc;stroke:#4c241d;stroke-linecap:round;stroke-linejoin:round;stroke-width:2px"/>
<circle cx="42.5" cy="54.5" r="5.5" style="fill:#ffffff;stroke:#4c241d;stroke-linecap:round;stroke-linejoin:round;stroke-width:2px"/>
<circle cx="42.5" cy="54.5" r="1.09" style="fill:#4c241d"/>
<circle cx="42.5" cy="49.5" r="1.09" style="fill:#4c241d"/>
<circle cx="47.5" cy="54.5" r="1.09" style="fill:#4c241d"/>
<circle cx="45.5" cy="58.5" r="1.09" style="fill:#4c241d"/>
<circle cx="39.5" cy="58.5" r="1.09" style="fill:#4c241d"/>
<circle cx="37.5" cy="54.5" r="1.09" style="fill:#4c241d"/>
</g>
</svg>